<?xml version="1.0" encoding="UTF-8" standalone="no"?>
<svg 
    role="img" 
    xmlns="http://www.w3.org/2000/svg" 
    width="1000mm"
    height="1000mm"
    viewBox="0 0 1000 1000">
    
    <path 
        id="path" 
        d=" M 308 738C 303 738 300 741 300 746C 300 746 300 804 300 804C 300 809 303 812 308 812C 308 812 692 812 692 812C 697 812 700 809 700 804C 700 804 700 746 700 746C 700 741 697 738 692 738C 692 738 308 738 308 738M 649 462C 656 462 664 465 669 471C 674 476 676 484 675 492C 675 492 650 642 650 642C 648 651 642 658 634 661C 625 664 616 663 609 657C 602 651 599 642 600 633C 600 633 625 483 625 483C 627 472 637 463 649 462C 649 462 649 462 649 462M 350 462C 363 462 373 471 375 483C 375 483 400 633 400 633C 401 642 398 651 391 657C 384 663 375 664 366 661C 358 658 352 651 350 642C 350 642 325 492 325 492C 324 484 326 477 331 471C 336 465 343 462 350 462C 350 462 350 462 350 462M 500 437C 506 437 513 440 518 444C 522 449 525 456 525 462C 525 462 525 638 525 638C 525 647 520 655 513 659C 505 664 495 664 487 659C 480 655 475 647 475 638C 475 638 475 462 475 462C 475 449 486 437 500 437C 500 437 500 437 500 437M 500 188C 461 188 422 199 399 219C 375 239 364 264 374 306C 377 317 372 329 362 334C 353 340 340 338 332 330C 306 304 281 298 257 301C 233 305 210 320 195 340C 180 360 173 384 178 406C 182 427 197 448 235 465C 242 468 247 474 249 481C 269 560 290 595 297 687C 297 687 703 688 703 688C 710 595 731 560 751 481C 753 474 758 468 765 465C 803 448 818 427 822 406C 827 384 820 360 805 340C 790 320 767 305 743 301C 719 298 694 304 668 330C 660 338 647 340 638 334C 628 329 623 317 626 306C 636 264 625 239 601 219C 578 199 539 188 500 188C 500 188 500 188 500 188M 500 138C 549 138 597 151 633 181C 657 201 673 229 678 263C 702 252 727 248 751 252C 789 258 823 280 845 310C 867 340 879 378 871 416C 864 451 838 484 796 505C 772 597 750 621 750 763C 750 763 750 804 750 804C 750 836 724 862 692 862C 692 862 308 862 308 862C 276 862 250 836 250 804C 250 804 250 763 250 763C 250 621 228 597 204 505C 162 484 136 451 129 416C 121 378 133 340 155 310C 177 280 211 258 249 252C 273 248 298 252 322 263C 327 229 343 201 367 181C 403 151 451 138 500 138C 500 138 500 138 500 138"
        transform="">
    </path>    
</svg>