<?xml version="1.0" encoding="UTF-8" standalone="no"?>
<svg 
    role="img" 
    xmlns="http://www.w3.org/2000/svg" 
    width="1000mm"
    height="1000mm"
    viewBox="0 0 1000 1000">
    
    <path 
        id="path" 
        style="opacity:1;vector-effect:none;fill:#000000;fill-opacity:1;"
        d="M 500 0C 224 0 0 224 0 500C 0 776 224 1000 500 1000C 776 1000 1000 776 1000 500C 1000 224 776 0 500 0C 500 0 500 0 500 0M 500 25C 762 25 975 238 975 500C 975 762 762 975 500 975C 238 975 25 762 25 500C 25 238 238 25 500 25C 500 25 500 25 500 25 M 320 117C 320 117 320 295 320 295C 320 295 345 295 345 295C 345 295 345 115 345 115C 345 96 374 95 374 116C 374 116 374 295 374 295C 374 295 401 295 401 295C 401 295 401 115 401 115C 401 95 429 94 429 116C 429 116 429 295 429 295C 429 295 455 295 455 295C 455 295 455 115 455 115C 455 95 484 95 484 116C 484 116 484 361 484 361C 484 387 461 415 430 415C 430 415 430 853 430 853C 430 916 345 916 345 853C 345 853 345 415 345 415C 315 415 289 392 289 357C 289 357 289 116 289 116C 289 105 297 100 304 100C 312 100 320 105 320 117C 320 117 320 117 320 117M 711 172C 711 172 711 853 711 853C 711 914 626 913 626 853C 626 853 626 583 626 583C 626 583 580 583 580 583C 580 583 580 172 580 172C 580 124 613 100 646 100C 678 100 711 124 711 172C 711 172 711 172 711 172"
        transform="translate(1000,0) scale(-1,1)">
    </path>    
</svg>