<?xml version="1.0" encoding="UTF-8" standalone="no"?>
<svg 
    role="img" 
    xmlns="http://www.w3.org/2000/svg" 
    width="1000mm"
    height="1000mm"
    viewBox="0 0 1000 1000">
    
    <path 
        id="path" 
        style="opacity:1;vector-effect:none;fill:{{ color }};fill-opacity:1;"
        d="M 500 0C 224 0 0 224 0 500C 0 776 224 1000 500 1000C 776 1000 1000 776 1000 500C 1000 224 776 0 500 0C 500 0 500 0 500 0M 500 50C 749 50 950 251 950 500C 950 749 749 950 500 950C 251 950 50 749 50 500C 50 251 251 50 500 50C 500 50 500 50 500 50 M 528 244C 529 244 530 244 531 244C 602 244 665 273 712 319C 712 319 694 362 694 362C 655 316 596 287 531 287C 530 287 529 287 528 287C 528 287 528 287 527 287C 434 289 355 351 328 436C 328 436 663 436 663 436C 663 436 646 479 646 479C 646 479 517 479 517 479C 517 479 319 479 319 479C 318 486 318 493 318 500C 318 507 318 514 319 521C 319 521 628 521 628 521C 628 521 611 564 611 564C 611 564 328 564 328 564C 355 650 436 713 531 713C 596 713 655 684 694 637C 694 637 694 697 694 697C 650 734 593 756 531 756C 412 756 312 674 284 564C 284 564 212 564 212 564C 212 564 230 521 230 521C 230 521 276 521 276 521C 276 514 275 507 275 500C 275 493 276 486 276 479C 276 479 213 479 213 479C 213 479 231 436 231 436C 231 436 284 436 284 436C 312 327 410 246 528 244C 528 244 528 244 528 244"
        transform="">
    </path>    
</svg>